<?xml version="1.0" encoding="utf-8"?>
<!-- Generator: Adobe Illustrator 25.2.1, SVG Export Plug-In . SVG Version: 6.00 Build 0)  -->
<svg version="1.1" id="Layer_1" xmlns="http://www.w3.org/2000/svg" xmlns:xlink="http://www.w3.org/1999/xlink" x="0px" y="0px"
	 viewBox="0 0 470 470" style="enable-background:new 0 0 470 470;" xml:space="preserve">
<style type="text/css">
	.st0{fill:#F1592A;stroke:#F1592A;stroke-width:14.9999;stroke-linecap:round;stroke-linejoin:round;stroke-miterlimit:9.9999;}
	.st1{fill:#F1592A;stroke:#F1592A;stroke-width:15;stroke-linecap:round;stroke-linejoin:round;stroke-miterlimit:10;}
</style>
<g>
	<ellipse class="st0" cx="235" cy="250.2" rx="143.2" ry="143.2"/>
	<circle class="st1" cx="234.3" cy="32.3" r="10.3"/>
	<circle class="st1" cx="234.3" cy="443.6" r="10.3"/>
	<path class="st1" d="M167.1,60.5c2.2,5.3-0.3,11.3-5.6,13.5s-11.3-0.3-13.5-5.6c-2.2-5.3,0.3-11.3,5.6-13.5
		C158.9,52.8,164.9,55.3,167.1,60.5z"/>
	<path class="st1" d="M326.5,443.7c2.2,5.3-0.3,11.3-5.6,13.5c-5.3,2.2-11.3-0.3-13.5-5.6c-2.2-5.3,0.3-11.3,5.6-13.5
		C318.2,435.9,324.3,438.4,326.5,443.7z"/>
	<path class="st1" d="M89,88.2c4,4,4,10.6,0,14.6s-10.6,4-14.6,0s-4-10.6,0-14.6S84.9,84.2,89,88.2z"/>
	<path class="st1" d="M394.3,393.5c4,4,4,10.6,0,14.6s-10.6,4-14.6,0s-4-10.6,0-14.6C383.7,389.5,390.2,389.5,394.3,393.5z"/>
	<path class="st1" d="M49.2,161c5.3,2.2,7.8,8.2,5.6,13.5c-2.2,5.3-8.2,7.8-13.5,5.6s-7.8-8.2-5.6-13.5
		C37.8,161.3,43.9,158.8,49.2,161z"/>
	<path class="st1" d="M420.7,314.8c5.3,2.2,7.8,8.2,5.6,13.5c-2.2,5.3-8.2,7.8-13.5,5.6c-5.3-2.2-7.8-8.2-5.6-13.5
		S415.4,312.6,420.7,314.8z"/>
	
		<ellipse transform="matrix(3.327791e-02 -0.9994 0.9994 3.327791e-02 -230.2749 258.3302)" class="st1" cx="18.4" cy="248.2" rx="10.3" ry="10.3"/>
	<circle class="st1" cx="450.2" cy="248.2" r="10.3"/>
	<path class="st1" d="M47.5,314.8c5.3-2.2,11.3,0.3,13.5,5.6c2.2,5.3-0.3,11.3-5.6,13.5c-5.3,2.2-11.3-0.3-13.5-5.6
		C39.7,323,42.2,317,47.5,314.8z"/>
	<path class="st1" d="M429.8,156c5.3-2.2,11.3,0.3,13.5,5.6s-0.3,11.3-5.6,13.5c-5.3,2.2-11.3-0.3-13.5-5.6S424.5,158.2,429.8,156z"
		/>
	<path class="st1" d="M74.3,393.5c4-4,10.6-4,14.6,0s4,10.6,0,14.6s-10.6,4-14.6,0C70.3,404.1,70.3,397.5,74.3,393.5z"/>
	<path class="st1" d="M379.6,88.2c4-4,10.6-4,14.6,0s4,10.6,0,14.6s-10.6,4-14.6,0S375.6,92.3,379.6,88.2z"/>
	<path class="st1" d="M142.1,443.7c2.2-5.3,8.2-7.8,13.5-5.6c5.3,2.2,7.8,8.2,5.6,13.5s-8.2,7.8-13.5,5.6
		C142.5,455,139.9,448.9,142.1,443.7z"/>
	<path class="st1" d="M296.2,70.9c2.2-5.3,8.2-7.8,13.5-5.6c5.3,2.2,7.8,8.2,5.6,13.5c-2.2,5.3-8.2,7.8-13.5,5.6
		C296.6,82.2,294.1,76.2,296.2,70.9z"/>
	<line class="st1" x1="235" y1="107.1" x2="235" y2="42.7"/>
	<line class="st1" x1="235" y1="430.6" x2="235" y2="393.4"/>
	<line class="st1" x1="367.3" y1="195.4" x2="426.8" y2="170.8"/>
	<line class="st1" x1="59.8" y1="323.2" x2="102.8" y2="305"/>
	<line class="st1" x1="336.2" y1="149" x2="381.8" y2="103.4"/>
	<line class="st1" x1="88.2" y1="397" x2="133.8" y2="351.5"/>
	<line class="st1" x1="289.8" y1="118" x2="303.3" y2="84.6"/>
	<line class="st1" x1="155.6" y1="438.1" x2="180.2" y2="382.5"/>
	<line class="st1" x1="133.8" y1="149" x2="88.2" y2="103.4"/>
	<line class="st1" x1="381.8" y1="397" x2="336.2" y2="351.5"/>
	<line class="st1" x1="180.2" y1="118" x2="161.5" y2="74.2"/>
	<line class="st1" x1="312.9" y1="438.1" x2="289.8" y2="382.5"/>
	<line class="st1" x1="102.8" y1="195.4" x2="53.6" y2="175.8"/>
	<line class="st1" x1="409.8" y1="323.2" x2="367.3" y2="305"/>
	<line class="st1" x1="91.9" y1="250.2" x2="27.5" y2="250.2"/>
	<line class="st1" x1="442.6" y1="250.2" x2="378.2" y2="250.2"/>
</g>
</svg>
